<svg xmlns="http://www.w3.org/2000/svg"  xmlns:xlink="http://www.w3.org/1999/xlink" viewBox="0 0 200.000000 200.000000">
 <style>
    .fill { fill: #000000 }
    @media (prefers-color-scheme:dark) {
        .fill { fill: #E9DAD8 }
    }
 </style>
<g transform="translate(0.000000,200.000000) scale(0.100000,-0.100000)" class="fill" stroke="none">
<path d="M1485 1501 c-162 -47 -300 -157 -370 -292 -13 -25 -29 -50 -37 -55
-7 -6 -58 -21 -113 -33 -258 -57 -566 -151 -797 -244 -90 -36 -93 -43 -54
-139 49 -119 126 -194 258 -249 191 -81 303 -73 555 38 7 3 22 -11 34 -31 11
-20 26 -36 32 -36 17 0 158 86 201 123 l38 33 -32 46 -33 47 36 44 c72 88 100
185 83 284 -7 39 -6 43 23 57 61 32 111 22 252 -51 120 -63 135 -68 203 -71
57 -3 83 0 118 16 51 22 102 81 92 106 -19 49 -213 111 -384 121 -78 5 -109 3
-173 -14 -76 -20 -197 -77 -227 -107 -13 -14 -13 -17 5 -30 12 -9 30 -12 46
-9 30 7 39 -11 39 -82 0 -90 -89 -230 -203 -319 -74 -58 -225 -139 -312 -168
-123 -40 -251 -39 -349 4 l-49 21 35 37 c66 69 113 168 132 279 5 29 2 34 -22
40 -37 9 -258 10 -307 0 -155 -30 251 100 653 209 172 46 292 84 292 90 0 23
61 63 113 73 29 7 87 15 129 20 142 16 218 75 226 175 6 79 -31 97 -133 67z
m-1033 -676 c22 -9 17 -38 -18 -110 -26 -55 -72 -116 -59 -80 31 86 9 155 -58
186 l-42 19 80 -4 c44 -2 88 -7 97 -11z"/>
<path d="M805 1014 c-22 -23 -15 -58 12 -62 16 -2 26 4 34 22 22 47 -11 75
-46 40z"/>
<path d="M1021 971 c-17 -30 -13 -49 9 -56 28 -9 52 13 48 44 -4 33 -42 41
-57 12z"/>
<path d="M889 686 c9 -10 9 -20 3 -33 -28 -51 -94 -85 -232 -118 -90 -22 -78
-31 22 -15 123 19 210 70 223 131 4 16 14 33 23 39 14 7 10 9 -17 10 -28 0
-31 -2 -22 -14z"/>
</g>
</svg>
